<svg width="300" height="300" xmlns="http://www.w3.org/2000/svg" version="1.1">
 <g>
  <title>Layer 1</title>
  <line stroke="#000000" id="svg_22" y2="541" x2="128" y1="363" x1="130" stroke-width="20" fill="none"/>
  <line id="svg_25" y2="192" x2="594" y1="191" x1="594" stroke-width="20" stroke="#000000" fill="none"/>
  <rect stroke="#ffffff" id="svg_60" height="90" width="184" y="84" x="-17" stroke-width="20" fill="#ffffff"/>
  <line transform="rotate(-45 148 156)" id="svg_68" y2="156" x2="268" y1="156" x1="28" stroke-width="20" stroke="#000000" fill="none"/>
  <line transform="rotate(-135 139.75 166.75)" stroke="#000000" id="svg_73" y2="166.75" x2="187.89035" y1="166.75" x1="91.60965" stroke-width="20" fill="none"/>
  <path transform="rotate(-45 221.615 82.1792)" stroke="null" id="svg_74" d="m215.81369,107.84658l20.23376,-15.8534l-39.12098,0l-39.1209,0l0,-9.814l0,-9.81401l38.6721,0c21.26963,0 38.67207,-0.49742 38.67207,-1.10538c0,-0.60795 -8.46737,-7.74198 -18.81636,-15.8534l-18.81642,-14.74803l17.39212,0l17.39206,0l26.56161,20.78029l26.5616,20.78028l-26.61255,20.74052l-26.61254,20.74052l-18.30967,0l-18.30972,0l20.23381,-15.85341l0.00001,0z" stroke-width="20" fill="#000000"/>
 </g>

</svg>