<svg width="300" height="300" xmlns="http://www.w3.org/2000/svg" version="1.1">
 <g>
  <title>Layer 1</title>
  <ellipse fill="none" cx="150" cy="150" id="svg_2" rx="140" ry="140" stroke-width="20" stroke="#000000"/>
  <path fill="#000000" stroke="#000000" stroke-width="2" d="m157.64593,98.84194c3.05438,-4.97357 8.64268,-11.45246 -0.95866,-13.01547c-2.67456,-1.23456 -5.34999,-3.41912 -8.02111,-0.98556c-5.94313,2.11105 -11.09511,5.06326 -4.84406,10.58838c2.77202,3.56813 5.29327,11.35343 8.43328,12.21086c1.87407,-2.89366 3.62966,-5.84811 5.39055,-8.79821l0,0.00001l0,-0.00001zm-13.12932,13.73267c-5.45587,-8.75587 -9.84634,-18.1493 -16.52407,-26.22674c-8.12179,-7.79725 -24.12464,-4.32149 -27.76133,5.73588c-4.83091,9.94345 5.5926,21.8156 17.39255,20.57103c8.95433,0.13485 17.9596,0.49742 26.89285,-0.08018l0,0.00001zm45.33684,0.29559c11.60402,-1.39865 18.27712,-14.53426 11.67024,-23.25597c-5.85481,-9.30762 -22.69881,-9.63209 -28.57914,-0.1735c-5.09176,7.64683 -9.51114,15.63743 -14.18357,23.4939c10.32982,0.53107 20.7568,0.4072 31.09248,-0.06443l0,0.00001l-0.00001,-0.00001zm19.21741,11.19934c3.95587,-3.12987 19.27469,-6.81971 7.67298,-9.79217c-2.874,-0.73333 -6.2247,-4.09751 -8.80768,-3.17688c-5.60887,6.27052 -14.23304,9.9491 -23.23744,9.5638c-1.7627,0.521 -10.75339,-0.79239 -8.32419,0.69939c6.35228,3.25689 12.5446,6.79389 19.1151,9.6847c4.60212,-2.20389 9.0686,-4.63163 13.58124,-6.97886l0,0.00001l-0.00001,0.00001zm-90.37841,1.772c3.38293,-1.772 6.76586,-3.54401 10.14878,-5.31602c-10.3405,-0.462 -22.17429,0.87819 -29.98905,-6.60023c-2.2033,-2.21835 -4.3161,-4.75812 -7.36977,-1.96531c-3.65766,2.26584 -14.90819,4.5878 -6.24589,7.35377c7.54292,4.00655 15.03278,8.11085 22.76213,11.82099c3.68312,-1.55306 7.15498,-3.49408 10.69382,-5.2932l-0.00001,-0.00001l-0.00001,0.00001zm49.57762,19.77187c4.38389,-3.16724 15.00236,-6.18473 15.35711,-9.58347c-9.91155,-5.12855 -19.53439,-10.83864 -29.90383,-15.17348c-3.56852,-1.21736 -6.46174,0.65579 -9.33414,2.28275c-8.49378,4.54289 -17.19192,8.80384 -25.40931,13.74318c10.74685,5.97548 21.62287,11.77427 32.6047,17.39375c5.60133,-2.82495 11.13023,-5.76537 16.68548,-8.66273l0,-0.00001l-0.00001,0.00001zm43.98098,9.88592c4.54804,-2.58029 9.09608,-5.16057 13.64414,-7.74087c-0.03723,-8.64222 0.11627,-17.28804 -0.14667,-25.92724c-9.17923,4.60548 -18.22792,9.44092 -27.12389,14.47596c-0.97295,8.91357 -0.47952,17.97454 -0.26805,26.93303c4.69413,-2.48674 9.27421,-5.14645 13.89448,-7.74087l-0.00001,-0.00001zm-106.66444,-5.44473c0.46192,-7.36677 1.45763,-15.76449 -8.42257,-17.94674c-6.2394,-2.61664 -14.88774,-9.32099 -19.69456,-9.25374c-0.14976,8.30069 -0.0705,16.60291 -0.08671,24.90433c9.21663,5.17178 18.2697,10.59254 27.68525,15.46777c0.91297,-4.2789 0.31615,-8.81478 0.51859,-13.17163l0,0.00001zm66.00014,28.52323c5.45147,-3.09465 10.90294,-6.1893 16.35441,-9.28394c-0.02524,-8.92208 0.38505,-17.85698 -0.06336,-26.76948c-5.9912,1.54485 -12.84366,6.32001 -19.15572,9.28604c-4.72636,2.4894 -9.45275,4.97881 -14.17912,7.46822c0.0932,9.5266 -0.25479,19.07059 0.34468,28.58308c5.65019,-2.96852 11.1502,-6.16563 16.6991,-9.28392l0.00001,0zm-22.85216,-5.00763c0,-4.76385 0,-9.5277 0,-14.29153c-10.94371,-5.75066 -21.8524,-11.55582 -32.83878,-17.24036c-0.60755,9.10982 -0.26036,18.25389 -0.35197,27.37945c10.94127,6.15956 21.76917,12.48734 32.84885,18.444c0.43114,-4.74697 0.27371,-9.53181 0.3419,-14.29155l0,-0.00001zm63.78847,19.15053c4.46,-2.67046 8.92,-5.34093 13.38002,-8.0114c-0.18609,-8.46663 0.45943,-17.04783 -0.47943,-25.42103c-9.27512,4.75827 -18.22654,10.17546 -27.33635,15.25507c0.21885,8.76016 -0.44936,17.62061 0.55702,26.30592c4.70537,-2.59692 9.26739,-5.3999 13.87873,-8.12856l0.00001,0zm-107.03493,-4.74653c-0.0363,-4.43916 -0.07265,-8.87833 -0.10896,-13.31749c-9.21421,-5.1835 -18.31234,-10.5404 -27.66498,-15.5201c-0.5853,8.50477 -0.25169,17.04268 -0.33972,25.56263c9.29538,5.53264 18.4862,11.2119 27.90621,16.57184c0.36092,-4.41908 0.1818,-8.86805 0.20745,-13.29688zm66.33421,29.17231c5.41406,-3.23314 10.82812,-6.46628 16.24218,-9.69941c-0.01258,-9.01521 0.19112,-18.0343 -0.07828,-27.04642c-11.02087,6.11023 -21.96801,12.33293 -32.83443,18.66276c-1.22806,8.70506 -0.4318,17.68026 -0.4336,26.48047c3.37261,1.84715 11.99576,-6.33918 17.10412,-8.39741l0,0.00001l0.00001,0zm-23.08776,-3.85924c-0.65468,-6.21629 2.8157,-14.96606 -5.97085,-17.37593c-8.86091,-5.04645 -17.6862,-10.14798 -26.66371,-15.02551c-1.30851,8.53433 0.06002,17.42513 -0.94515,26.06386c10.76573,6.99786 21.81279,13.68767 33.0611,20.04096c0.90215,-4.45223 0.34105,-9.16832 0.51861,-13.70339l0,0.00001zm-37.65094,-1.64331c-13.10338,-7.86523 -26.20675,-15.73045 -39.31011,-23.59566c0.01485,-24.27317 -0.35812,-48.55217 0.121,-72.82078c6.56154,-3.64041 13.54408,-6.62466 20.29685,-9.96465c-4.3616,-11.22684 1.93133,-24.86983 14.5784,-29.07216c10.60181,-3.91146 23.38144,-0.38165 30.1406,7.85264c4.90946,-2.26402 9.81893,-4.52804 14.7284,-6.79206c4.93582,2.2845 9.87168,4.56901 14.80749,6.85351c7.07259,-7.54362 19.18981,-11.84858 29.69045,-7.62092c12.60435,3.98362 19.47461,17.59612 14.95447,28.80534c6.80246,3.45334 14.19833,6.1519 20.43542,10.36585c0.2765,24.12941 0.00247,48.26237 -0.0226,72.39325c-26.07254,15.51478 -51.72257,31.6218 -78.21839,46.54668c-7.70454,-0.00187 -14.35467,-7.5239 -21.50395,-10.57365c-6.91183,-4.1089 -13.80621,-8.24149 -20.69805,-12.37738l0.00003,-0.00001l-0.00001,0z" id="svg_10"/>
 </g>

</svg>