<svg width="300" height="300" xmlns="http://www.w3.org/2000/svg" version="1.1">
 <g>
  <title>Layer 1</title>
  <line fill="none" stroke-width="20" x1="130" y1="363" x2="128" y2="541" id="svg_22" stroke="#000000"/>
  <line fill="none" stroke="#000000" stroke-width="20" x1="594" y1="191" x2="594" y2="192" id="svg_25"/>
  <g stroke="null" id="svg_63">
   <g stroke="null" id="svg_43">
    <g stroke="null" id="svg_33">
     <g stroke="null" id="svg_16">
      <g stroke="null" transform="matrix(0.785758 0.186512 -0.165401 0.886049 -44.8478 -21.855)" id="svg_7">
       <line transform="rotate(3.18578 161.502 201.357)" stroke="#000" stroke-width="20" stroke-linecap="undefined" stroke-linejoin="undefined" id="svg_2" y2="163.35649" x2="183.50237" y1="239.35649" x1="139.50237" fill="none"/>
       <line transform="rotate(-89.8012 210.169 190.023)" stroke="#000" stroke-width="20" stroke-linecap="undefined" stroke-linejoin="undefined" id="svg_5" y2="152.02316" x2="232.16904" y1="228.02316" x1="188.16904" fill="none"/>
      </g>
      <g stroke="null" transform="matrix(0.785758 0.186511 -0.1654 0.886049 -43.1528 -40.8238)" id="svg_15">
       <line transform="rotate(3.18578 263.171 201.02)" stroke="#000" stroke-width="20" stroke-linecap="undefined" stroke-linejoin="undefined" id="svg_10" y2="163.02042" x2="285.17096" y1="239.02042" x1="241.17095" fill="none"/>
       <line transform="rotate(-89.8012 311.838 189.687)" stroke="#000" stroke-width="20" stroke-linecap="undefined" stroke-linejoin="undefined" id="svg_14" y2="151.68709" x2="333.83762" y1="227.68709" x1="289.83762" fill="none"/>
      </g>
     </g>
     <g stroke="null" id="svg_32">
      <g stroke="null" transform="matrix(0.785758 0.186512 -0.165401 0.886048 -44.8479 -21.855)" id="svg_28">
       <line transform="rotate(3.18578 359.998 159.494)" stroke="#000" stroke-width="20" stroke-linecap="undefined" stroke-linejoin="undefined" id="svg_26" y2="121.4937" x2="381.99784" y1="197.4937" x1="337.99784" fill="none"/>
       <line transform="rotate(-89.8012 408.665 148.16)" stroke="#000" stroke-width="20" stroke-linecap="undefined" stroke-linejoin="undefined" id="svg_27" y2="110.16036" x2="430.66451" y1="186.16036" x1="386.6645" fill="none"/>
      </g>
      <g stroke="null" transform="matrix(0.785758 0.186512 -0.1654 0.886048 -43.1528 -40.8238)" id="svg_31">
       <line transform="rotate(3.18578 461.666 159.158)" stroke="#000" stroke-width="20" stroke-linecap="undefined" stroke-linejoin="undefined" id="svg_29" y2="121.1576" x2="483.66636" y1="197.1576" x1="439.66635" fill="none"/>
       <line transform="rotate(-89.8012 510.333 147.824)" stroke="#000" stroke-width="20" stroke-linecap="undefined" stroke-linejoin="undefined" id="svg_30" y2="109.82426" x2="532.33302" y1="185.82426" x1="488.33302" fill="none"/>
      </g>
     </g>
    </g>
    <rect stroke="null" id="svg_34" height="108.66973" width="93.1653" y="132.57645" x="273.45752" opacity="NaN" stroke-width="20" fill="#ffffff"/>
    <rect stroke="null" id="svg_42" height="30.09669" width="17.24549" y="194.14831" x="12.00001" stroke-width="20" fill="#ffffff"/>
   </g>
   <g stroke="null" id="svg_62">
    <g stroke="null" id="svg_59">
     <g stroke="null" id="svg_51">
      <g stroke="null" transform="matrix(0.785758 0.186512 -0.165401 0.886048 -44.8479 -21.855)" id="svg_46">
       <line transform="rotate(3.18578 145.902 127.245)" stroke="#000" stroke-width="20" stroke-linecap="undefined" stroke-linejoin="undefined" id="svg_44" y2="89.24455" x2="167.90193" y1="165.24455" x1="123.90193" fill="none"/>
       <line transform="rotate(-89.8012 194.569 115.911)" stroke="#000" stroke-width="20" stroke-linecap="undefined" stroke-linejoin="undefined" id="svg_45" y2="77.91122" x2="216.5686" y1="153.91122" x1="172.5686" fill="none"/>
      </g>
      <g stroke="null" transform="matrix(0.785758 0.186512 -0.1654 0.886048 -43.1528 -40.8238)" id="svg_49">
       <line transform="rotate(3.18578 247.57 126.909)" stroke="#000" stroke-width="20" stroke-linecap="undefined" stroke-linejoin="undefined" id="svg_47" y2="88.90846" x2="269.57049" y1="164.90846" x1="225.57049" fill="none"/>
       <line transform="rotate(-89.8012 296.237 115.575)" stroke="#000" stroke-width="20" stroke-linecap="undefined" stroke-linejoin="undefined" id="svg_48" y2="77.57512" x2="318.23716" y1="153.57512" x1="274.23715" fill="none"/>
      </g>
     </g>
     <g stroke="null" id="svg_58">
      <g stroke="null" transform="matrix(0.785758 0.186512 -0.165401 0.886048 -44.8479 -21.855)" id="svg_54">
       <line transform="rotate(3.18578 344.398 85.3818)" stroke="#000" stroke-width="20" stroke-linecap="undefined" stroke-linejoin="undefined" id="svg_52" y2="47.38172" x2="366.39737" y1="123.38172" x1="322.39736" fill="none"/>
       <line transform="rotate(-89.8012 393.064 74.0484)" stroke="#000" stroke-width="20" stroke-linecap="undefined" stroke-linejoin="undefined" id="svg_53" y2="36.04839" x2="415.06403" y1="112.04839" x1="371.06403" fill="none"/>
      </g>
      <g stroke="null" transform="matrix(0.785758 0.186512 -0.1654 0.886048 -43.1528 -40.8238)" id="svg_57">
       <line transform="rotate(3.18578 446.066 85.0457)" stroke="#000" stroke-width="20" stroke-linecap="undefined" stroke-linejoin="undefined" id="svg_55" y2="47.04561" x2="468.06599" y1="123.04561" x1="424.06599" fill="none"/>
       <line transform="rotate(-89.8012 494.733 73.7124)" stroke="#000" stroke-width="20" stroke-linecap="undefined" stroke-linejoin="undefined" id="svg_56" y2="35.71228" x2="516.73266" y1="111.71228" x1="472.73266" fill="none"/>
      </g>
     </g>
    </g>
    <rect stroke="null" id="svg_60" height="108.66973" width="93.1653" y="64.00001" x="273.45752" opacity="NaN" stroke-width="20" fill="#ffffff"/>
    <rect stroke="null" id="svg_61" height="30.09669" width="17.24549" y="125.57186" x="12.00001" stroke-width="20" fill="#ffffff"/>
   </g>
  </g>
 </g>

</svg>