<svg width="300" height="300" xmlns="http://www.w3.org/2000/svg" version="1.1">
 <g>
  <title>Layer 1</title>
  <ellipse fill="none" cx="150" cy="150" id="svg_2" rx="140" ry="140" stroke-width="20" stroke="#000000"/>
  <path fill="#000000" stroke="#000000" stroke-width="2" d="m201.20239,138.24134c-6.11828,-8.66116 -13.60355,-15.67327 -21.11181,-20.57851c-8.76096,5.0279 -19.43134,8.08952 -31.06412,8.08952c-11.65563,0 -22.34135,-3.06759 -31.08687,-8.08952c-7.50824,4.90524 -15.00116,11.91736 -21.13445,20.57851c-14.23751,20.10873 -15.80329,40.73515 -3.50607,46.08331c5.50721,2.40917 11.28145,0.61351 17.24688,-3.89072c-1.04642,4.56701 -1.65751,9.51706 -1.65751,14.69467c0,23.0028 11.40375,41.63602 25.45764,41.63602c8.47075,0 12.66402,-6.78478 14.68038,-17.17278c2.00892,10.38801 6.20215,17.17278 14.6422,17.17278c14.07698,0 25.48084,-18.63322 25.48084,-41.63602c0,-5.17762 -0.61129,-10.12766 -1.68045,-14.69467c5.98058,4.50423 11.74721,6.29989 17.26972,3.89072c12.28965,-5.34816 10.70075,-25.97459 -3.53636,-46.08331l-0.00001,0l-0.00001,0zm-52.19096,-20.33612c23.64732,0 42.82653,-15.02984 42.82653,-33.57028s-19.17921,-33.57032 -42.82653,-33.57032c-23.65536,0 -42.84972,15.03283 -42.84972,33.57032s19.19436,33.57028 42.84972,33.57028z" id="svg_16"/>
 </g>

</svg>