<svg width="300" height="300" xmlns="http://www.w3.org/2000/svg" version="1.1">
 <g>
  <title>Layer 1</title>
  <ellipse fill="none" cx="150" cy="150" id="svg_2" rx="140" ry="140" stroke-width="20" stroke="#000000"/>
  <path fill="#000000" stroke="#000000" stroke-width="2" d="m150.53036,68.605c23.50199,0 42.56815,17.92927 42.56815,40.00861c0,22.07935 -19.06616,39.99137 -42.56815,39.99137c-23.502,0 -42.56816,17.92929 -42.56816,40.00862c0,22.07935 19.06616,39.99137 42.56816,39.99137c47.00398,0 85.15465,-35.84132 85.15465,-80c0,-44.15869 -38.15067,-79.99998 -85.15465,-79.99998l0,0.00001zm0,27.50592c-7.34815,0 -13.30829,5.59933 -13.30829,12.50269c0,6.90337 5.96012,12.50269 13.30829,12.50269c7.34816,0 13.30828,-5.59933 13.30828,-12.50269c0,-6.90336 -5.96011,-12.50269 -13.30828,-12.50269zm0,80c7.34436,0 13.30828,5.60289 13.30828,12.50269c0,6.89978 -5.96391,12.5027 -13.30828,12.5027c-7.34437,0 -13.30829,-5.60291 -13.30829,-12.5027c0,-6.89978 5.96392,-12.50269 13.30829,-12.50269zm83.24469,-27.45496c0,44.12587 -38.07593,79.89697 -85.04502,79.89697c-46.96906,0 -85.04502,-35.77109 -85.04502,-79.89697c0,-44.12589 38.07595,-79.89699 85.04502,-79.89699c46.96909,0 85.04502,35.7711 85.04502,79.89699z" id="svg_12"/>
 </g>

</svg>