<svg width="300" height="300" xmlns="http://www.w3.org/2000/svg" version="1.1">
 <g>
  <title>Layer 1</title>
  <ellipse fill="none" cx="150" cy="150" id="svg_2" rx="140" ry="140" stroke-width="20" stroke="#000000"/>
  <path fill="#000000" stroke="#000000" stroke-width="2" d="m139.6474,236.54254c-22.09637,-3.01326 -41.01583,-16.49825 -46.75017,-33.57769c-2.72726,-8.71808 -1.13038,-17.86403 -1.66787,-26.77129c-0.10139,-22.86626 -0.15318,-45.73266 -0.22937,-68.59899c2.59451,-7.09792 13.54539,-10.83104 21.87576,-7.32181c0.72467,-1.86455 0.19351,-5.20843 0.44753,-7.63063c-1.47728,-6.65759 4.56366,-13.42999 13.33771,-13.88053c5.03523,-0.02574 11.06362,2.98215 8.76887,-3.67853c-1.55588,-6.86008 5.29404,-14.67387 14.6627,-14.0415c8.95284,-0.65308 15.75151,6.50844 14.67129,13.14673c0.41646,3.96292 11.33351,-2.59663 15.14982,1.80901c4.86744,2.27073 8.19695,6.60342 7.27777,11.0829c0.28216,12.27105 -0.38009,24.61989 0.70992,36.83185c8.0053,-3.18539 19.41183,0.72853 21.05145,7.73629c-0.18134,21.77216 0.46225,43.55968 -0.48704,65.31931c-3.2224,22.38202 -30.30306,41.30908 -59.21342,39.96487c-3.20369,0.0067 -6.4354,0.03146 -9.60496,-0.38999l0.00001,0.00001l0,-0.00001zm19.76887,-5.9451c24.26792,-3.2238 43.35932,-21.66645 41.9921,-41.05967c0.18557,-18.74401 0.94023,-37.51562 0.05661,-56.24697c-0.56463,-6.84855 -15.00782,-5.19057 -14.07402,1.12875c-0.0044,13.89214 -0.00883,27.78428 -0.01327,41.67642c-4.49688,3.64522 -12.54575,1.44972 -17.93806,4.41231c-11.98762,4.11121 -19.60473,14.17846 -19.86601,24.31477c-6.46551,7.88045 -9.39265,-4.94448 -5.68403,-9.16958c4.28762,-12.74455 19.37513,-22.25358 35.94729,-23.5023c-0.13558,-29.3197 0.35105,-58.64996 -0.43543,-87.96117c-4.69212,-8.30291 -17.84014,-1.02048 -14.34081,6.25011c-0.34476,22.16696 -0.03586,44.33909 -0.51838,66.50448c-3.13406,3.94112 -9.07269,0.20349 -7.13562,-3.43358c-0.13389,-27.76731 -0.2678,-55.53462 -0.4017,-83.30193c-2.51462,-4.9039 -13.65522,-4.13773 -13.83056,1.24447c-0.13773,28.65527 -0.27546,57.31053 -0.4132,85.9658c-2.9315,3.24612 -8.95287,0.42387 -7.33135,-3.11949c-0.10829,-21.58497 0.30137,-43.17928 -0.41451,-64.75653c-0.18315,-6.42223 -13.86342,-6.26317 -14.04599,-0.30721c-0.27361,22.12556 0.07332,44.26296 -0.75054,66.3789c0.77565,5.63323 -9.31857,2.94613 -6.99277,-1.31516c-0.12333,-15.03498 0.33612,-30.08646 -0.444,-45.10778c-4.60107,-9.26854 -18.36048,-1.61673 -14.52355,6.08692c0.04615,26.66082 -0.30917,53.33491 0.54858,79.98746c2.10424,20.47759 27.1844,37.33897 53.27503,35.99328c2.46082,-0.0806 4.91431,-0.3015 7.33418,-0.66231l-0.00001,-0.00001l0.00002,0.00002z" id="svg_8"/>
 </g>

</svg>