<svg width="300" height="300" xmlns="http://www.w3.org/2000/svg" version="1.1">
 <g>
  <title>Layer 1</title>
  <ellipse fill="none" cx="150" cy="150" id="svg_2" rx="140" ry="140" stroke-width="20" stroke="#000000"/>
  <path fill="#000000" stroke="#000000" stroke-width="2" d="m149.27251,97.50151c-55.05785,0 -98.5,51.49666 -98.5,51.49666s43.44215,51.50334 98.5,51.50334c42.10693,0 98.5,-51.50334 98.5,-51.50334s-56.39307,-51.49666 -98.5,-51.49666zm0,83.58695c-19.32789,0 -35.0733,-14.39957 -35.0733,-32.09028s15.74541,-32.09028 35.0733,-32.09028s35.0733,14.40625 35.0733,32.09028s-15.74541,32.09028 -35.0733,32.09028zm0,-50.82241c-11.30196,0 -20.47341,8.38473 -20.47341,18.73213c0,10.3474 9.16415,18.73213 20.47341,18.73213c11.30926,0 20.47341,-8.38473 20.47341,-18.73213c0,-10.34072 -9.16415,-18.73213 -20.47341,-18.73213z" id="svg_14"/>
 </g>

</svg>